Coordinates
version=1
nRows=15
nColumns=34
inDegrees=yes

Units are S.I. units (second, meters, Newtons, ...)
If the header above contains a line with 'inDegrees', this indicates whether rotational values are in degrees (yes) or radians (no).

endheader
time	pelvis_tilt	pelvis_list	pelvis_rotation	pelvis_tx	pelvis_ty	pelvis_tz	hip_flexion_r	hip_adduction_r	hip_rotation_r	knee_angle_r	ankle_angle_r	subtalar_angle_r	mtp_angle_r	hip_flexion_l	hip_adduction_l	hip_rotation_l	knee_angle_l	ankle_angle_l	subtalar_angle_l	mtp_angle_l	lumbar_extension	lumbar_bending	lumbar_rotation	arm_flex_r	arm_add_r	arm_rot_r	elbow_flex_r	pro_sup_r	arm_flex_l	arm_add_l	arm_rot_l	elbow_flex_l	pro_sup_l
      2.13333330	     -3.88194910	      2.14874471	     -1.30415988	      1.83765898	      0.87852651	     -0.21157927	     -0.29162906	     -6.40831245	      4.55710661	      0.00000000	      1.79469219	    -22.58816236	      0.00000000	     -1.35917528	     -2.18559508	     -5.12333599	      0.00000000	      3.30767342	     -5.06232804	      0.00000000	     -2.93673553	     -0.72003225	     -0.91022331	      8.95934732	     -9.57026254	     38.47511969	     85.60472125	     90.77405054	      3.71791300	     -9.00058240	     26.96170017	     83.39380089	     93.10453901
      2.15000000	     -4.22078915	      2.15449644	     -1.31458267	      1.83760365	      0.87792146	     -0.21163468	      0.10349149	     -6.41186791	      4.59443326	      0.00000000	      2.26857668	    -21.95020087	      0.00000000	     -0.96467136	     -2.18585883	     -4.97054616	      0.00000000	      3.35516130	     -4.99738616	      0.00000000	     -2.53818604	     -0.70455319	     -0.77043705	      8.93496525	     -9.98205350	     39.07447688	     86.38117657	     89.91001393	      4.06688777	     -9.54116284	     28.17325119	     83.41222210	     92.72586293
      2.16666670	     -4.21776276	      2.15465600	     -1.31462675	      1.83766057	      0.87800080	     -0.21159618	      0.10431568	     -6.41168807	      4.59460301	      0.00000000	      2.26861490	    -21.95005798	      0.00000000	     -0.96271080	     -2.18590995	     -4.97044433	      0.00000000	      3.35538957	     -4.99746586	      0.00000000	     -2.53820676	     -0.70471587	     -0.77038776	      8.93511709	     -9.98182798	     39.07428779	     86.38120653	     89.90974105	      4.06694645	     -9.54116876	     28.17327170	     83.41205437	     92.72572167
      2.18333330	     -4.21470784	      2.15460055	     -1.31487573	      1.83769560	      0.87809713	     -0.21149863	      0.10426648	     -6.41216826	      4.59484232	      0.00000000	      2.26864633	    -21.94984663	      0.00000000	     -0.95960373	     -2.18656424	     -4.97018999	      0.00000000	      3.35564237	     -4.99748858	      0.00000000	     -2.53821128	     -0.70489119	     -0.77023625	      8.93536412	     -9.98155528	     39.07407263	     86.38127671	     89.90945563	      4.06703738	     -9.54134346	     28.17322942	     83.41186751	     92.72557111
      2.20000000	     -4.20544346	      2.16706825	     -1.31170056	      1.83760062	      0.87782343	     -0.21109462	      0.10283744	     -6.41159182	      4.60048081	      0.00000000	      2.26885630	    -21.94560671	      0.00000000	     -0.94737959	     -2.20537724	     -4.96673273	      0.00000000	      3.35720275	     -4.99713873	      0.00000000	     -2.54070499	     -0.71066883	     -0.76539164	      8.93951304	     -9.97545554	     39.07199478	     86.38208818	     89.90592920	      4.06915417	     -9.54785123	     28.17126592	     83.40890950	     92.72362388
      2.21666670	     -4.20375207	      2.16598014	     -1.30978211	      1.83762687	      0.87723905	     -0.21093104	      0.10280834	     -6.41262295	      4.60172492	      0.00000000	      2.26864744	    -21.94464133	      0.00000000	     -0.94678341	     -2.20738466	     -4.96620191	      0.00000000	      3.35737425	     -4.99700569	      0.00000000	     -2.54163696	     -0.71160911	     -0.76463462	      8.94007953	     -9.97460383	     39.07178595	     86.38203528	     89.90549022	      4.06959160	     -9.54903673	     28.17091886	     83.40843471	     92.72337630
      2.23333330	     -4.22871976	      2.13366424	     -1.22289098	      1.83773963	      0.87680391	     -0.21063699	      0.09790148	     -6.34774630	      4.70713562	      0.00000000	      2.25998124	    -21.87886538	      0.00000000	     -0.90383106	     -2.29544482	     -4.92618172	      0.00000000	      3.38184891	     -4.99098057	      0.00000000	     -2.56709702	     -0.79984975	     -0.71781943	      8.97011959	     -9.90927758	     39.06463032	     86.38294963	     89.87983334	      4.10996519	     -9.64072225	     28.14621109	     83.39374832	     92.70870633
      2.25000000	     -4.22795922	      2.13773279	     -1.22357544	      1.83783162	      0.87664420	     -0.21079876	      0.10040953	     -6.34700923	      4.70836383	      0.00000000	      2.26006204	    -21.87811769	      0.00000000	     -0.90544799	     -2.29944410	     -4.92542992	      0.00000000	      3.38225871	     -4.99082541	      0.00000000	     -2.56738318	     -0.80011271	     -0.71843055	      8.97010587	     -9.90899208	     39.06437369	     86.38269332	     89.87944484	      4.11117961	     -9.64143789	     28.14611186	     83.39389057	     92.70850812
      2.26666670	     -4.27118043	      2.07592577	     -1.23010778	      1.83780111	      0.87643259	     -0.21101118	      0.15316402	     -6.28522592	      4.94981651	      0.00000000	      2.26335278	    -21.74357673	      0.00000000	     -0.87653655	     -2.38250967	     -4.82569702	      0.00000000	      3.50414430	     -4.98842373	      0.00000000	     -2.55589890	     -0.82261002	     -0.82173411	      8.98441150	     -9.90988722	     39.01122899	     86.34470918	     89.82501861	      4.27376803	     -9.72144277	     28.15293379	     83.43672260	     92.68262314
      2.28333330	     -4.27891610	      2.06514632	     -1.21310338	      1.83768731	      0.87624484	     -0.21119143	      0.15642366	     -6.30307957	      4.95997943	      0.00000000	      2.26606200	    -21.73855206	      0.00000000	     -0.88139735	     -2.38980822	     -4.82528560	      0.00000000	      3.51358381	     -4.99135137	      0.00000000	     -2.55537693	     -0.81552858	     -0.81656238	      8.98914401	     -9.90795911	     39.00758880	     86.34158910	     89.82074006	      4.27138405	     -9.72636367	     28.15800718	     83.43896460	     92.68081859
      2.30000000	     -4.30372916	      2.05146619	     -1.10610071	      1.83743035	      0.87608899	     -0.21143061	      0.15760008	     -6.31610668	      5.06428895	      0.00000000	      2.27883307	    -21.69015139	      0.00000000	     -0.83331323	     -2.39168294	     -4.81717469	      0.00000000	      3.60974348	     -5.02183267	      0.00000000	     -2.55398508	     -0.76041680	     -0.81750771	      9.02125298	     -9.92041032	     38.97427446	     86.31686661	     89.79174200	      4.28290671	     -9.75337796	     28.19402399	     83.46399074	     92.66903874
      2.31666670	     -4.30751742	      2.03536663	     -1.11058266	      1.83731586	      0.87643238	     -0.21192807	      0.17315659	     -6.32810327	      5.07112138	      0.00000000	      2.28058022	    -21.68716160	      0.00000000	     -0.84198697	     -2.39634957	     -4.81268629	      0.00000000	      3.61865854	     -5.02325959	      0.00000000	     -2.55384679	     -0.75875573	     -0.82335093	      9.02079216	     -9.92210379	     38.97169201	     86.31427554	     89.78887168	      4.28661674	     -9.75590131	     28.19791703	     83.46678917	     92.66786322
      2.33333330	     -4.38177975	      2.01339859	     -1.10365618	      1.83725623	      0.87729167	     -0.21255744	      0.26755316	     -6.34488637	      5.25848575	      0.00000000	      2.28440113	    -21.59300145	      0.00000000	     -0.75740637	     -2.38517139	     -4.75105289	      0.00000000	      3.83836473	     -5.08455013	      0.00000000	     -2.60228922	     -0.62107986	     -0.93171713	      9.01164186	     -9.98920206	     38.91734331	     86.24472117	     89.73393097	      4.34061418	     -9.79425757	     28.28517157	     83.51505155	     92.64644341
      2.35000000	     -4.38143027	      1.99429249	     -1.09705914	      1.83724883	      0.87793678	     -0.21286112	      0.28016261	     -6.34908889	      5.26110819	      0.00000000	      2.28538760	    -21.59191512	      0.00000000	     -0.76427922	     -2.37960798	     -4.75049687	      0.00000000	      3.84386108	     -5.08661214	      0.00000000	     -2.59993621	     -0.62182863	     -0.92937335	      9.01326047	     -9.98653367	     38.91683030	     86.24421095	     89.73210195	      4.33851047	     -9.79689760	     28.28848042	     83.51606181	     92.64569875
      2.36666670	     -4.44063620	      1.98376771	     -1.04636818	      1.83697744	      0.87770092	     -0.21300096	      0.34950945	     -6.36565759	      5.34183439	      0.00000000	      2.28899142	    -21.54548149	      0.00000000	     -0.68498211	     -2.36279119	     -4.74938208	      0.00000000	      4.00419859	     -5.15829562	      0.00000000	     -2.64483461	     -0.51256633	     -0.94673939	      9.00581764	     -9.96413461	     38.91004822	     86.20248387	     89.68959769	      4.31872729	     -9.82267807	     28.38410615	     83.53695784	     92.62995593
